<svg width="24" height="24" viewBox="0 0 24 24" fill="none" xmlns="http://www.w3.org/2000/svg">
    <path d="M22.5 11.9999C22.5003 11.1707 22.1862 10.3722 21.6211 9.76532C21.4303 9.57265 21.2856 9.33934 21.1977 9.08283C21.1098 8.82632 21.081 8.55326 21.1135 8.28407C21.1153 8.26943 21.1162 8.25469 21.1161 8.23993C21.1141 7.43115 20.815 6.65129 20.2756 6.04867C19.7361 5.44605 18.9941 5.06269 18.1904 4.97151C18.0902 4.17392 17.7115 3.43735 17.1211 2.8918C16.7918 2.58861 16.4033 2.35703 15.9799 2.2117C15.5566 2.06636 15.1077 2.01044 14.6616 2.04747C14.2156 2.08449 13.782 2.21365 13.3885 2.42679C12.9949 2.63993 12.6498 2.93241 12.375 3.28573V8.62495H13.9959C14.2941 8.62462 14.5801 8.50599 14.791 8.29508C15.0019 8.08417 15.1205 7.79821 15.1209 7.49995V6.53245C14.8707 6.44399 14.6598 6.26992 14.5255 6.04102C14.3912 5.81211 14.3422 5.54311 14.3871 5.28155C14.4319 5.01999 14.5678 4.78271 14.7707 4.61166C14.9736 4.4406 15.2305 4.34679 15.4959 4.34679C15.7612 4.34679 16.0181 4.4406 16.221 4.61166C16.4239 4.78271 16.5598 5.01999 16.6047 5.28155C16.6495 5.54311 16.6005 5.81211 16.4662 6.04102C16.3319 6.26992 16.1211 6.44399 15.8709 6.53245V7.49995C15.8703 7.99705 15.6725 8.47362 15.321 8.82513C14.9695 9.17663 14.493 9.37436 13.9959 9.37495H12.375V10.6484H16.6186C16.9169 10.6481 17.2029 10.5295 17.4138 10.3186C17.6247 10.1077 17.7433 9.82171 17.7436 9.52345V8.55595C17.4934 8.46749 17.2826 8.29342 17.1483 8.06452C17.014 7.83561 16.965 7.56661 17.0099 7.30505C17.0547 7.04349 17.1906 6.80621 17.3935 6.63516C17.5964 6.4641 17.8533 6.37029 18.1186 6.37029C18.384 6.37029 18.6409 6.4641 18.8438 6.63516C19.0467 6.80621 19.1826 7.04349 19.2274 7.30505C19.2723 7.56661 19.2233 7.83561 19.089 8.06452C18.9547 8.29342 18.7439 8.46749 18.4936 8.55595V9.52345C18.4931 10.0205 18.2953 10.4971 17.9438 10.8486C17.5923 11.2001 17.1158 11.3979 16.6186 11.3984H12.375V12.6014H16.6186C17.1158 12.602 17.5923 12.7998 17.9438 13.1513C18.2953 13.5028 18.4931 13.9793 18.4936 14.4764V15.4439C18.7439 15.5324 18.9547 15.7065 19.089 15.9354C19.2233 16.1643 19.2723 16.4333 19.2274 16.6948C19.1826 16.9564 19.0467 17.1937 18.8438 17.3647C18.6409 17.5358 18.384 17.6296 18.1186 17.6296C17.8533 17.6296 17.5964 17.5358 17.3935 17.3647C17.1906 17.1937 17.0547 16.9564 17.0099 16.6948C16.965 16.4333 17.014 16.1643 17.1483 15.9354C17.2826 15.7065 17.4934 15.5324 17.7436 15.4439V14.4764C17.7433 14.1782 17.6247 13.8922 17.4138 13.6813C17.2029 13.4704 16.9169 13.3518 16.6186 13.3514H12.375V14.6249H13.9959C14.493 14.6255 14.9695 14.8233 15.321 15.1748C15.6725 15.5263 15.8703 16.0028 15.8709 16.4999V17.4674C16.1211 17.5559 16.3319 17.73 16.4662 17.9589C16.6005 18.1878 16.6495 18.4568 16.6047 18.7183C16.5598 18.9799 16.4239 19.2172 16.221 19.3882C16.0181 19.5593 15.7612 19.6531 15.4959 19.6531C15.2305 19.6531 14.9736 19.5593 14.7707 19.3882C14.5678 19.2172 14.4319 18.9799 14.3871 18.7183C14.3422 18.4568 14.3912 18.1878 14.5255 17.9589C14.6598 17.73 14.8707 17.5559 15.1209 17.4674V16.4999C15.1205 16.2017 15.0019 15.9157 14.791 15.7048C14.5801 15.4939 14.2941 15.3753 13.9959 15.3749H12.375V20.7139C12.6544 21.0744 13.0071 21.3716 13.4098 21.5857C13.8126 21.7999 14.2561 21.9261 14.7113 21.9562C14.7801 21.9604 14.8486 21.9625 14.9167 21.9624C15.7507 21.9648 16.5539 21.6472 17.1608 21.0751C17.7317 20.5388 18.0936 19.8171 18.1818 19.0388C18.9882 18.9474 19.7329 18.5627 20.274 17.9578C20.8151 17.353 21.1148 16.5703 21.1163 15.7587C21.1161 15.7444 21.1153 15.7301 21.1137 15.7159C21.0813 15.4455 21.1106 15.1714 21.1993 14.9139C21.2881 14.6565 21.4339 14.4226 21.626 14.2296C22.1886 13.6235 22.5009 12.8269 22.5 11.9999Z" fill="currentColor"/>
    <path d="M9.29004 2.04395C8.85139 2.01466 8.41137 2.07484 7.9967 2.22083C7.58203 2.36682 7.20136 2.59558 6.87781 2.89321C6.49897 3.24288 6.20522 3.67463 6.01906 4.15539C6.18363 4.70798 6.49296 5.20651 6.91501 5.59933C7.22998 5.85269 7.59589 6.03512 7.98779 6.13418C8.37968 6.23324 8.78833 6.2466 9.18586 6.17334C9.23477 6.16757 9.28434 6.17149 9.33174 6.18487C9.37913 6.19826 9.42343 6.22085 9.4621 6.25135C9.50076 6.28185 9.53304 6.31967 9.55709 6.36265C9.58114 6.40563 9.59649 6.45293 9.60226 6.50184C9.60803 6.55075 9.60411 6.60032 9.59073 6.64772C9.57734 6.69511 9.55476 6.73941 9.52425 6.77807C9.49375 6.81674 9.45593 6.84902 9.41295 6.87307C9.36997 6.89712 9.32267 6.91247 9.27376 6.91824C9.07664 6.94196 8.8783 6.95405 8.67976 6.95446C7.85361 6.98058 7.04739 6.69784 6.41851 6.16145C6.0586 5.83887 5.76644 5.44794 5.55901 5.0114C4.80771 5.15559 4.12995 5.55658 3.64187 6.14566C3.15379 6.73473 2.88578 7.47522 2.88376 8.24023C2.92185 8.51736 2.89569 8.79954 2.8073 9.06494C2.71892 9.33035 2.57067 9.57187 2.37402 9.77083C1.81131 10.3782 1.49909 11.1759 1.5 12.0039C1.50091 12.8318 1.81489 13.6288 2.37894 14.235C2.57416 14.4334 2.7212 14.674 2.80873 14.9382C2.89626 15.2024 2.92193 15.4832 2.88376 15.7589C2.88238 16.5164 3.14261 17.2512 3.62047 17.839C4.09833 18.4268 4.7645 18.8316 5.50636 18.9849C5.67315 18.6999 5.88459 18.4435 6.13261 18.2255C6.88554 17.5706 7.92631 17.3312 9.22565 17.5121C9.32211 17.5282 9.40848 17.5813 9.46635 17.6601C9.52422 17.7389 9.54902 17.8372 9.53545 17.9341C9.52188 18.0309 9.47103 18.1186 9.39372 18.1785C9.31642 18.2384 9.21878 18.2657 9.12162 18.2546C8.04826 18.1051 7.21074 18.2839 6.62919 18.7875C6.34134 19.0444 6.11699 19.3645 5.97376 19.7227C6.1463 20.2375 6.44327 20.7017 6.83832 21.0741C7.44541 21.647 8.2492 21.965 9.0839 21.9625C9.57448 21.9615 10.0584 21.8486 10.4987 21.6323C10.939 21.4161 11.3243 21.1022 11.625 20.7146V11.0033C11.3151 11.0659 10.9999 11.0981 10.6838 11.0995C10.3442 11.101 10.0058 11.0588 9.67707 10.9737C9.47506 10.9683 8.06296 10.9549 7.57647 11.7919C7.55241 11.8358 7.51982 11.8744 7.4806 11.9055C7.44138 11.9366 7.39634 11.9595 7.34813 11.9729C7.29991 11.9863 7.24951 11.99 7.19987 11.9836C7.15024 11.9772 7.10238 11.961 7.05912 11.9358C7.01586 11.9106 6.97808 11.8771 6.94799 11.8371C6.91791 11.7971 6.89613 11.7515 6.88394 11.703C6.87176 11.6544 6.86941 11.6039 6.87704 11.5545C6.88467 11.505 6.90212 11.4576 6.92836 11.415C7.10668 11.1403 7.33873 10.9045 7.61053 10.7219C7.88233 10.5392 8.18828 10.4134 8.50996 10.352C8.16442 10.0297 7.90767 9.62387 7.76442 9.17356C7.73271 9.07925 7.73976 8.97621 7.78403 8.8871C7.82829 8.79799 7.90614 8.73011 8.00045 8.6984C8.09476 8.66669 8.1978 8.67374 8.28691 8.718C8.37602 8.76227 8.4439 8.84012 8.47561 8.93443C9.05356 10.6537 10.9313 10.3964 11.625 10.2364V3.28569C11.3457 2.92542 10.9932 2.62846 10.5907 2.41442C10.1882 2.20038 9.7449 2.07411 9.29004 2.04395Z" fill="currentColor"/>
</svg>
