<svg width="32" height="32" viewBox="0 0 32 32" fill="none" xmlns="http://www.w3.org/2000/svg">
    <path d="M20.7678 25.4325H11.2335C10.6428 25.4325 10.1641 24.9537 10.1641 24.3631C10.1641 23.7725 10.6428 23.2937 11.2335 23.2937H20.7678C21.3584 23.2937 21.8372 23.7725 21.8372 24.3631C21.8372 24.9537 21.3584 25.4325 20.7678 25.4325Z" fill="currentColor"/>
    <path d="M19.5392 28.5409H12.4659C11.8753 28.5409 11.3965 28.0621 11.3965 27.4715C11.3965 26.8809 11.8753 26.4021 12.4659 26.4021H19.5392C20.1298 26.4021 20.6085 26.8809 20.6085 27.4715C20.6085 28.0621 20.1298 28.5409 19.5392 28.5409Z" fill="currentColor"/>
    <path d="M18.9359 29.5112C18.7065 30.902 17.4987 32 16.0012 32C14.5273 32 13.2991 30.9204 13.0664 29.5112H18.9359Z" fill="currentColor"/>
    <path d="M16.0007 0C10.4672 0 5.97461 4.4862 5.97461 10.0325C5.97461 12.8962 7.18334 15.4819 9.10968 17.3113C9.85964 18.0159 10.4349 18.8756 10.8228 19.813C11.1525 20.6016 11.3464 21.4549 11.3981 22.3211H20.6161C20.7325 20.427 21.5146 18.6171 22.898 17.3048C24.8243 15.4754 26.0268 12.8962 26.0268 10.0325C26.0268 4.4862 21.534 0 16.0007 0ZM21.1268 10.5109H21.1333C21.1333 10.7889 21.1074 11.0668 21.0622 11.3383C21.0363 11.5193 21.0944 11.7068 21.2366 11.8231L21.9089 12.4114C22.0964 12.573 22.1417 12.851 22.0189 13.0643L21.2238 14.4412C21.1009 14.6609 20.8359 14.7579 20.5967 14.6803L19.7499 14.383C19.5754 14.3248 19.3879 14.3636 19.2393 14.4864C18.819 14.829 18.3407 15.1134 17.8171 15.3074C17.6426 15.372 17.5132 15.5207 17.4809 15.7017L17.3064 16.5808C17.2612 16.8265 17.0478 17.001 16.7958 17.001H15.2055C14.9534 17.001 14.7336 16.8265 14.6884 16.5808L14.5203 15.7017C14.488 15.5207 14.3523 15.372 14.1777 15.3074C13.6605 15.1134 13.1822 14.829 12.7556 14.48C12.6134 14.3636 12.4195 14.3248 12.2449 14.383L11.4045 14.6739C11.1653 14.7579 10.9003 14.6609 10.7775 14.4412L9.98242 13.0643C9.85964 12.851 9.90485 12.573 10.0923 12.4114L10.771 11.8231C10.9132 11.7003 10.9715 11.5128 10.9391 11.3254C10.8938 11.0603 10.8745 10.7889 10.8745 10.5109H10.868C10.868 10.2329 10.8938 9.95498 10.9391 9.68345C10.965 9.50247 10.9068 9.31498 10.7646 9.1922L10.0923 8.6104C9.90485 8.44232 9.85964 8.17083 9.98242 7.95103L10.7775 6.57414C10.9003 6.35438 11.1653 6.2574 11.4045 6.34144L12.2514 6.63234C12.4259 6.69696 12.6134 6.65171 12.7621 6.53536C13.1822 6.1863 13.6605 5.90834 14.1842 5.70795C14.3523 5.64329 14.488 5.50109 14.5203 5.32007L14.6949 4.44094C14.7401 4.1953 14.9534 4.01432 15.2055 4.01432H16.7958C17.0478 4.01432 17.2677 4.1953 17.3129 4.44094L17.4809 5.31364C17.5132 5.50109 17.649 5.64329 17.8236 5.70795C18.3407 5.90834 18.819 6.1863 19.2457 6.53536C19.3879 6.65171 19.5818 6.69696 19.7564 6.63234L20.5967 6.34144C20.8359 6.2574 21.1009 6.35438 21.2238 6.57414L22.0189 7.95103C22.1417 8.17083 22.0964 8.44232 21.9089 8.6104L21.2302 9.19863C21.088 9.32145 21.0298 9.50894 21.0622 9.68992C21.1074 9.96141 21.1268 10.2329 21.1268 10.5109Z" fill="currentColor"/>
    <path d="M13.5723 10.5106C13.5723 11.8504 14.6584 12.9364 15.9981 12.9364C17.3379 12.9364 18.4239 11.8504 18.4239 10.5106L18.4264 10.5083C18.4264 9.16858 17.3403 8.08252 16.0006 8.08252C14.6608 8.08252 13.5748 9.16858 13.5748 10.5083" fill="currentColor"/>
</svg>
