<svg width="24" height="24" viewBox="0 0 24 24" fill="none" xmlns="http://www.w3.org/2000/svg">
    <g clip-path="url(#clip0_165_2025)">
        <path d="M23.3409 12.9642H15.0231C14.6596 12.9642 14.3633 13.2606 14.3633 13.624C14.3633 13.8091 14.442 13.9759 14.5646 14.0962L20.4216 19.9532C20.5419 20.0828 20.7157 20.1639 20.9056 20.1639C21.1347 20.1639 21.3361 20.0481 21.4542 19.8722C22.8941 18.2007 23.8202 16.0779 23.9869 13.742C23.9962 13.7027 24.0008 13.6633 24.0008 13.6239C24.0008 13.2606 23.7067 12.9642 23.3409 12.9642Z" fill="currentColor"/>
        <path d="M12.511 1.00708C12.1475 1.0093 11.8535 1.3034 11.8535 1.66684V10.9107C11.8535 11.2765 12.1475 11.5729 12.511 11.5729H21.7572C22.1208 11.5729 22.417 11.2765 22.417 10.9107C22.0905 5.59091 17.8332 1.33355 12.511 1.00708Z" fill="currentColor"/>
        <path d="M17.5919 19.4139L10.7719 12.5938C10.6562 12.4758 10.5868 12.3114 10.5868 12.1331L10.5843 2.50024C10.5843 2.1368 10.2904 1.84277 9.92684 1.84277C4.387 2.1808 0 6.78301 0 12.4063C0 18.2518 4.73896 22.993 10.5843 22.993C13.2512 22.993 15.6866 22.0068 17.5479 20.3792C17.6915 20.2588 17.7818 20.0783 17.7818 19.8769C17.7818 19.6986 17.7099 19.5342 17.5919 19.4139Z" fill="currentColor"/>
    </g>
    <defs>
        <clipPath id="clip0_165_2025">
            <rect width="24" height="24" fill="none"/>
        </clipPath>
    </defs>
</svg>
