<svg width="24" height="24" viewBox="0 0 24 24" fill="none" xmlns="http://www.w3.org/2000/svg">
    <path d="M21.7541 2H6.46011C6.13527 2 5.87181 2.26346 5.87181 2.5883V20.2353C5.86966 20.8736 5.6579 21.4938 5.26886 22H19.4013C21.0249 21.9983 22.3407 20.6825 22.3424 19.0587V2.5883C22.3424 2.26346 22.079 2 21.7541 2ZM18.2247 17.294H9.98951C9.66466 17.294 9.40121 17.0308 9.40121 16.7059C9.40121 16.3811 9.66466 16.1176 9.98951 16.1176H18.2247C18.5496 16.1176 18.813 16.3811 18.813 16.7059C18.813 17.0308 18.5496 17.294 18.2247 17.294ZM18.2247 13.7646H9.98951C9.66466 13.7646 9.40121 13.5014 9.40121 13.1765C9.40121 12.8517 9.66466 12.5882 9.98951 12.5882H18.2247C18.5496 12.5882 18.813 12.8517 18.813 13.1765C18.813 13.5014 18.5496 13.7646 18.2247 13.7646ZM18.2247 10.2352H9.98951C9.66466 10.2352 9.40121 9.97195 9.40121 9.6471C9.40121 9.32225 9.66466 9.0588 9.98951 9.0588H18.2247C18.5496 9.0588 18.813 9.32225 18.813 9.6471C18.813 9.97195 18.5496 10.2352 18.2247 10.2352ZM18.2247 6.70579H9.98951C9.66466 6.70579 9.40121 6.44255 9.40121 6.1177C9.40121 5.79285 9.66466 5.5294 9.98951 5.5294H18.2247C18.5496 5.5294 18.813 5.79285 18.813 6.1177C18.813 6.44255 18.5496 6.70579 18.2247 6.70579Z" fill="currentColor"/>
    <path d="M4.10711 4.353H1.75432C1.42947 4.353 1.16602 4.61625 1.16602 4.94109V20.2353C1.16602 21.2098 1.95617 22 2.93072 22C3.90526 22 4.69541 21.2098 4.69541 20.2353V4.94109C4.69541 4.61625 4.43196 4.353 4.10711 4.353Z" fill="currentColor"/>
</svg>
