<svg width="32" height="32" viewBox="0 0 32 32" fill="none" xmlns="http://www.w3.org/2000/svg">
    <g clip-path="url(#clip0_94_425)">
        <mask id="mask0_94_425" style="mask-type:luminance" maskUnits="userSpaceOnUse" x="0" y="0" width="32" height="32">
            <path d="M0 0H32V32H0V0Z" fill="white"/>
        </mask>
        <g mask="url(#mask0_94_425)">
            <path d="M18.3673 2.336C18.3673 3.62614 17.3214 4.672 16.0313 4.672C14.7412 4.672 13.6953 3.62614 13.6953 2.336C13.6953 1.04586 14.7412 0 16.0313 0C17.3214 0 18.3673 1.04586 18.3673 2.336Z" fill="currentColor"/>
            <path fill-rule="evenodd" clip-rule="evenodd" d="M16.032 4.67212H12.032C8.52109 4.67212 5.54264 6.95206 4.49647 10.1121H4.352C1.94845 10.1121 0 12.0606 0 14.4641C0 16.8676 1.94845 18.8161 4.352 18.8161H4.4553C5.4626 22.0424 8.47386 24.3841 12.032 24.3841H20.032C23.5901 24.3841 26.6014 22.0424 27.6087 18.8161H27.648C30.0515 18.8161 32 16.8676 32 14.4641C32 12.0606 30.0515 10.1121 27.648 10.1121H27.5676C26.5213 6.95206 23.5429 4.67212 20.032 4.67212H16.032ZM23.7879 13.9521C23.7879 15.5929 22.4577 16.9231 20.8169 16.9231C19.1761 16.9231 17.846 15.5929 17.846 13.9521C17.846 12.3113 19.1761 10.9811 20.8169 10.9811C22.4577 10.9811 23.7879 12.3113 23.7879 13.9521ZM11.1629 16.9231C12.8038 16.9231 14.134 15.5929 14.134 13.9521C14.134 12.3113 12.8038 10.9811 11.1629 10.9811C9.52218 10.9811 8.192 12.3113 8.192 13.9521C8.192 15.5929 9.52218 16.9231 11.1629 16.9231Z" fill="currentColor"/>
            <path d="M5.75391 32C7.67124 28.2754 11.5538 25.728 16.0314 25.728C20.5089 25.728 24.3915 28.2754 26.3088 32H5.75391Z" fill="currentColor"/>
        </g>
    </g>
    <defs>
        <clipPath id="clip0_94_425">
            <rect width="32" height="32" fill="white"/>
        </clipPath>
    </defs>
</svg>
