<svg width="32" height="32" viewBox="0 0 32 32" fill="none" xmlns="http://www.w3.org/2000/svg">
    <g clip-path="url(#clip0_94_437)">
        <path d="M8.02295 16.9729H6.58789C6.21143 16.9729 5.87158 17.197 5.72266 17.5422L1.75 26.7925L11.1846 21.9739C10.0552 20.4111 8.93775 18.6875 8.02295 16.9729Z" fill="currentColor"/>
        <path d="M26.2771 17.5422C26.1284 17.197 25.7883 16.9729 25.4121 16.9729H23.9771C22.2495 20.2102 19.7327 23.5557 18.1316 25.3962C17.0056 26.6877 14.9944 26.6863 13.8701 25.3962C13.7551 25.2642 13.1548 24.5691 12.3279 23.5002L10.627 24.3694L17.061 30.791L29.2524 24.4707L26.2771 17.5422Z" fill="currentColor"/>
        <path d="M0.590085 29.4959L0.076901 30.6909C-0.188724 31.3093 0.266354 32 0.941891 32H14.7576C14.844 31.9358 14.845 31.9397 15.3088 31.6992L8.86523 25.269L0.590085 29.4959Z" fill="currentColor"/>
        <path d="M31.9238 30.6909L29.9961 26.2021L18.8125 32H31.0588C31.7329 32 32.1899 31.3105 31.9238 30.6909Z" fill="currentColor"/>
        <path d="M16.9409 8.45776C16.9409 7.9397 16.5186 7.51855 15.9998 7.51855C15.4807 7.51855 15.0586 7.9397 15.0586 8.45776C15.0586 8.97559 15.4807 9.39697 15.9998 9.39697C16.5186 9.39697 16.9409 8.97559 16.9409 8.45776Z" fill="currentColor"/>
        <path d="M16.7097 24.1011C17.0266 23.7373 24.4697 15.1275 24.4697 9.20901C24.4697 -2.99509 7.5293 -3.14402 7.5293 9.20901C7.5293 15.1275 14.9724 23.7373 15.2893 24.1011C15.6646 24.5315 16.3352 24.531 16.7097 24.1011ZM13.176 8.45779C13.176 6.90408 14.4426 5.64016 15.9995 5.64016C17.5562 5.64016 18.8228 6.90408 18.8228 8.45779C18.8228 10.0113 17.5562 11.2752 15.9995 11.2752C14.4426 11.2752 13.176 10.0113 13.176 8.45779Z" fill="currentColor"/>
    </g>
    <defs>
        <clipPath id="clip0_94_437">
            <rect width="32" height="32" fill="none"/>
        </clipPath>
    </defs>
</svg>
