<svg width="48" height="48" viewBox="0 0 48 48" fill="none" xmlns="http://www.w3.org/2000/svg">
    <path d="M25.1632 18.7291C22.9755 19.0383 21.0648 21.0921 21.0463 21.1106C21.0188 21.1391 20.9878 21.1639 20.954 21.1844C17.9817 23.1137 16.3063 21.646 16.2371 21.5583C14.3355 19.846 16.0802 16.9752 16.154 16.8552C16.9329 15.5606 17.8761 14.3723 18.9602 13.3198H10.8878L7.38477 24.8767C7.42239 24.8976 7.45663 24.9241 7.4863 24.9552C12.9232 31.1029 20.1417 36.5583 22.9894 38.6167C23.2857 38.8359 23.6543 38.9343 24.0204 38.8921C24.3866 38.8498 24.723 38.6701 24.9617 38.3892C25.2004 38.1083 25.3234 37.7472 25.306 37.3791C25.2886 37.0109 25.132 36.6631 24.8678 36.406L20.9494 32.4875C20.8634 32.401 20.8152 32.2841 20.8152 32.1621C20.8152 32.0402 20.8634 31.9232 20.9494 31.8368C20.9923 31.7935 21.0433 31.7592 21.0996 31.7357C21.1558 31.7123 21.2161 31.7002 21.2771 31.7002C21.338 31.7002 21.3983 31.7123 21.4546 31.7357C21.5108 31.7592 21.5619 31.7935 21.6048 31.8368L23.6909 33.9229L25.5371 35.7691L26.4602 36.7152C26.7913 37.0377 27.2356 37.2177 27.6978 37.2166C28.1601 37.2155 28.6035 37.0333 28.933 36.7092C29.2626 36.3851 29.4521 35.9447 29.4609 35.4826C29.4697 35.0204 29.2971 34.5732 28.9802 34.2367L25.3848 30.4844L24.7017 29.7783C24.6584 29.7354 24.6241 29.6843 24.6007 29.6281C24.5772 29.5718 24.5652 29.5115 24.5652 29.4506C24.5652 29.3897 24.5772 29.3293 24.6007 29.2731C24.6241 29.2169 24.6584 29.1658 24.7017 29.1229C24.7446 29.0796 24.7956 29.0453 24.8519 29.0219C24.9081 28.9984 24.9685 28.9864 25.0294 28.9864C25.0903 28.9864 25.1506 28.9984 25.2069 29.0219C25.2631 29.0453 25.3142 29.0796 25.3571 29.1229L30.6048 34.5691C30.8589 34.8205 31.1805 34.9928 31.5307 35.065C31.8809 35.1372 32.2444 35.1062 32.5773 34.9757C32.9102 34.8452 33.1979 34.6208 33.4057 34.3299C33.6135 34.0389 33.7324 33.6939 33.7478 33.3368C33.7555 33.0851 33.7101 32.8347 33.6147 32.6017C33.5193 32.3687 33.376 32.1584 33.194 31.9844L30.0463 28.9383L27.854 26.8106C27.8052 26.7699 27.7653 26.7195 27.7369 26.6627C27.7085 26.6058 27.6921 26.5437 27.6888 26.4803C27.6854 26.4168 27.6953 26.3533 27.7176 26.2938C27.74 26.2343 27.7744 26.1801 27.8187 26.1345C27.863 26.0889 27.9163 26.053 27.9751 26.029C28.0339 26.0049 28.0971 25.9933 28.1606 25.9948C28.2242 25.9963 28.2867 26.0109 28.3444 26.0377C28.402 26.0645 28.4535 26.103 28.4955 26.1506L34.7263 32.1829C34.8897 32.3507 35.0854 32.4838 35.3016 32.574C35.5178 32.6641 35.75 32.7096 35.9842 32.7077C36.2185 32.7057 36.4499 32.6563 36.6646 32.5625C36.8792 32.4688 37.0727 32.3325 37.2332 32.1619C37.3938 31.9914 37.5182 31.7901 37.5989 31.5702C37.6796 31.3503 37.7149 31.1163 37.7028 30.8824C37.6906 30.6484 37.6312 30.4194 37.5282 30.209C37.4252 29.9986 37.2806 29.8113 37.1032 29.6583L25.1632 18.7291Z" fill="currentColor"/>
    <path d="M9.47955 10.6156C7.08351 9.5384 4.47086 9.02977 1.8457 9.12946V27.231H4.6657C4.96668 27.2317 5.25968 27.1343 5.50036 26.9536C5.74104 26.7729 5.91628 26.5187 5.99955 26.2295L10.2365 12.2772C10.3333 11.9555 10.3099 11.6096 10.1707 11.3039C10.0314 10.9983 9.78579 10.7536 9.47955 10.6156Z" fill="currentColor"/>
    <path d="M26.6585 11.5108C25.6632 11.1011 24.551 11.0764 23.5385 11.4416C21.7708 12.0878 19.1908 13.6385 16.9246 17.3401C16.9246 17.3678 15.5077 19.6478 16.8416 20.8754C16.8877 20.917 18.0785 21.9139 20.3862 20.4416C20.7185 20.0954 22.8 18.0093 25.26 17.7831C25.3236 17.7778 25.3876 17.7857 25.448 17.8064C25.5084 17.827 25.5638 17.86 25.6108 17.9031L37.7077 28.9801C37.7631 29.0308 37.8139 29.0862 37.8646 29.1416C39.2492 28.9293 40.1723 27.6647 40.44 27.2031L36.0554 15.2539L26.6585 11.5108Z" fill="currentColor"/>
    <path d="M45.2316 11.3305C42.599 11.313 39.9879 11.8052 37.5423 12.7798C37.2134 12.9207 36.9519 13.1835 36.8125 13.513C36.6731 13.8426 36.6667 14.2133 36.7946 14.5475L41.9316 28.5275C42.0318 28.7971 42.2118 29.0299 42.4476 29.1948C42.6834 29.3597 42.9638 29.4489 43.2516 29.4505H46.1546V11.3536C45.9239 11.3398 45.6054 11.3305 45.2316 11.3305Z" fill="currentColor"/>
</svg>
