<svg width="24" height="24" viewBox="0 0 24 24" fill="none" xmlns="http://www.w3.org/2000/svg">
    <path fill-rule="evenodd" clip-rule="evenodd" d="M5.55211 5.00715C5.55211 2.79416 7.34627 1 9.56058 1C11.7736 1 13.5677 2.79416 13.5677 5.00715C13.5677 7.22151 11.7736 9.01562 9.56058 9.01562C7.34627 9.01562 5.55211 7.22151 5.55211 5.00715ZM14.1539 22.0963C9.02731 23.3104 0.888672 22.2772 0.888672 18.9966C0.888672 14.2078 4.77178 10.3247 9.56058 10.3247C11.4518 10.3247 13.2015 10.9303 14.6265 11.9581C12.841 13.0141 11.6424 14.9592 11.6424 17.1822C11.6424 19.2028 12.6326 20.9939 14.1539 22.0963ZM17.7072 11.7762C20.6909 11.7762 23.1132 14.1985 23.1132 17.1822C23.1132 20.1659 20.6909 22.5882 17.7072 22.5882C14.7235 22.5882 12.3012 20.1659 12.3012 17.1822C12.3012 14.1985 14.7235 11.7762 17.7072 11.7762ZM16.5384 15.5622H14.5654C14.3106 15.5622 14.085 15.7262 14.0062 15.9684C13.9275 16.2107 14.0138 16.476 14.2198 16.6257L15.816 17.7855L15.2063 19.6619C15.1276 19.9041 15.2138 20.1695 15.4199 20.3192C15.6259 20.4689 15.905 20.4689 16.111 20.3192L17.7072 19.1595L19.3034 20.3192C19.5095 20.4689 19.7885 20.4689 19.9946 20.3192C20.2006 20.1695 20.2868 19.9041 20.2082 19.6619L19.5985 17.7855L21.1946 16.6257C21.4007 16.476 21.4869 16.2107 21.4082 15.9684C21.3295 15.7262 21.1038 15.5622 20.8491 15.5622H18.8761L18.2664 13.6857C18.1876 13.4435 17.9619 13.2795 17.7072 13.2795C17.4525 13.2795 17.2268 13.4435 17.1481 13.6857L16.5384 15.5622ZM14.7836 16.221H16.5899C16.8446 16.221 17.0703 16.057 17.149 15.8148L17.7072 14.0969L18.2654 15.8148C18.3441 16.057 18.5698 16.221 18.8245 16.221H20.6308L19.1695 17.2827C18.9634 17.4325 18.8772 17.6978 18.9559 17.94L19.5141 19.6579L18.0528 18.5962C17.8467 18.4465 17.5677 18.4465 17.3617 18.5962L15.9003 19.6579L16.4585 17.94C16.5372 17.6978 16.451 17.4325 16.245 17.2827L14.7836 16.221Z" fill="currentColor"/>
</svg>
