<svg width="32" height="32" viewBox="0 0 32 32" fill="none" xmlns="http://www.w3.org/2000/svg">
    <g clip-path="url(#clip0_94_476)">
        <path d="M28.7204 0.360319V16.0874C28.4093 16.1639 28.1107 16.2844 27.8336 16.4452L27.7715 16.4763L22.498 20.3964V0.360319C22.4986 0.154217 22.5808 -0.0432725 22.7265 -0.189009C22.8723 -0.334745 23.0697 -0.416883 23.2758 -0.41748H27.9426C28.1487 -0.416883 28.3462 -0.334745 28.492 -0.189009C28.6377 -0.0432725 28.7198 0.154217 28.7204 0.360319Z" fill="currentColor"/>
        <path d="M20.5525 5.8049V17.9463C20.0992 17.6068 19.5477 17.4239 18.9813 17.4252H14.3301V5.8049C14.3307 5.5988 14.4128 5.40131 14.5585 5.25557C14.7043 5.10983 14.9018 5.0277 15.1079 5.0271H19.7747C19.9808 5.0277 20.1783 5.10983 20.324 5.25557C20.4697 5.40131 20.5519 5.5988 20.5525 5.8049Z" fill="currentColor"/>
        <path d="M12.3865 13.583V17.4253H11.9508C11.169 17.4262 10.4023 17.6414 9.73423 18.0475L6.16406 20.2098V13.583C6.16466 13.3769 6.2468 13.1794 6.39253 13.0336C6.53827 12.8879 6.73576 12.8058 6.94186 12.8052H11.6087C11.8148 12.8058 12.0122 12.8879 12.158 13.0336C12.3037 13.1794 12.3859 13.3769 12.3865 13.583Z" fill="currentColor"/>
        <path d="M9.27389 11.2495C9.17174 11.2496 9.07059 11.2295 8.97621 11.1904C8.88183 11.1513 8.79608 11.094 8.72385 11.0218C8.65162 10.9496 8.59432 10.8638 8.55525 10.7694C8.51617 10.675 8.49607 10.5739 8.49609 10.4717V1.13815C8.49609 0.931865 8.57804 0.734029 8.72391 0.588164C8.86977 0.442298 9.06761 0.360352 9.27389 0.360352C9.48018 0.360352 9.67801 0.442298 9.82388 0.588164C9.96975 0.734029 10.0517 0.931865 10.0517 1.13815V10.4717C10.0517 10.5739 10.0316 10.675 9.99254 10.7694C9.95346 10.8638 9.89617 10.9496 9.82394 11.0218C9.75171 11.094 9.66595 11.1513 9.57158 11.1904C9.4772 11.2295 9.37604 11.2496 9.27389 11.2495Z" fill="currentColor"/>
        <path d="M9.27558 6.58264C8.52567 6.62789 7.78818 6.37554 7.22319 5.88038C6.6582 5.38521 6.31131 4.68719 6.25781 3.93782C6.31148 3.18859 6.65845 2.49075 7.22342 1.99574C7.7884 1.50073 8.52579 1.24849 9.27558 1.29377C10.0254 1.24849 10.7628 1.50073 11.3277 1.99574C11.8927 2.49075 12.2397 3.18859 12.2933 3.93782C12.2933 4.14411 12.2114 4.34195 12.0655 4.48781C11.9197 4.63368 11.7218 4.71562 11.5155 4.71562C11.3093 4.71562 11.1114 4.63368 10.9656 4.48781C10.8197 4.34195 10.7377 4.14411 10.7377 3.93782C10.7377 3.34764 10.0682 2.84936 9.27558 2.84936C8.48297 2.84936 7.81341 3.34764 7.81341 3.93782C7.81341 4.52801 8.483 5.02705 9.27558 5.02705C9.48186 5.02705 9.6797 5.10899 9.82557 5.25486C9.97143 5.40072 10.0534 5.59856 10.0534 5.80484C10.0534 6.01113 9.97143 6.20897 9.82557 6.35483C9.6797 6.5007 9.48186 6.58264 9.27558 6.58264Z" fill="currentColor"/>
        <path d="M9.27558 10.316C8.52579 10.3613 7.7884 10.1091 7.22342 9.61406C6.65845 9.11905 6.31148 8.42121 6.25781 7.67198C6.25781 7.46569 6.33976 7.26786 6.48562 7.12199C6.63149 6.97612 6.82933 6.89418 7.03561 6.89418C7.2419 6.89418 7.43973 6.97612 7.5856 7.12199C7.73146 7.26786 7.81341 7.46569 7.81341 7.67198C7.81341 8.26216 8.48297 8.76044 9.27558 8.76044C10.0682 8.76044 10.7377 8.26216 10.7377 7.67198C10.7377 7.08179 10.0682 6.58275 9.27558 6.58275C9.06929 6.58275 8.87146 6.50081 8.72559 6.35494C8.57973 6.20908 8.49778 6.01124 8.49778 5.80496C8.49778 5.59867 8.57973 5.40083 8.72559 5.25497C8.87146 5.1091 9.06929 5.02716 9.27558 5.02716C10.0255 4.98191 10.763 5.23426 11.328 5.72942C11.893 6.22459 12.2399 6.92261 12.2933 7.67198C12.2397 8.42121 11.8927 9.11905 11.3277 9.61406C10.7628 10.1091 10.0254 10.3613 9.27558 10.316Z" fill="currentColor"/>
        <path d="M12.0628 29.7085L9.40385 31.8356C9.25935 31.9512 9.07838 32.0115 8.89343 32.0057C8.70848 31.9998 8.53167 31.9282 8.39475 31.8038L1.00458 25.0854C0.921336 25.0097 0.855498 24.9169 0.811612 24.8133C0.767727 24.7097 0.746838 24.5978 0.750387 24.4854C0.753936 24.3729 0.781839 24.2626 0.83217 24.162C0.882501 24.0613 0.954063 23.9728 1.04192 23.9026L3.70082 21.7754C3.84532 21.6598 4.02629 21.5995 4.21124 21.6054C4.39619 21.6112 4.573 21.6828 4.70992 21.8073L12.1001 28.5256C12.1833 28.6013 12.2492 28.6941 12.2931 28.7977C12.3369 28.9013 12.3578 29.0132 12.3543 29.1257C12.3507 29.2381 12.3228 29.3484 12.2725 29.4491C12.2222 29.5497 12.1506 29.6382 12.0628 29.7085Z" fill="currentColor"/>
        <path d="M31.7326 19.0475C31.6835 18.6935 31.5481 18.357 31.3383 18.0676C31.1285 17.7782 30.8507 17.5449 30.5295 17.3881C30.1991 17.2226 29.8326 17.1419 29.4633 17.1534C29.0939 17.165 28.7332 17.2683 28.4137 17.4541L21.07 22.9151C20.6869 23.132 20.2542 23.2459 19.8139 23.2456H16.6868C16.576 23.2465 16.4661 23.2255 16.3635 23.1837C16.2608 23.1419 16.1675 23.0802 16.0888 23.0021C16.0101 22.9241 15.9476 22.8312 15.905 22.7289C15.8624 22.6266 15.8405 22.5169 15.8405 22.406C15.8405 22.2952 15.8624 22.1855 15.905 22.0832C15.9476 21.9809 16.0101 21.888 16.0888 21.81C16.1675 21.7319 16.2608 21.6702 16.3635 21.6284C16.4661 21.5866 16.576 21.5656 16.6868 21.5665H19.0006C19.1934 21.5665 19.3842 21.5285 19.5623 21.4548C19.7404 21.381 19.9022 21.2729 20.0385 21.1366C20.1748 21.0003 20.283 20.8384 20.3567 20.6604C20.4305 20.4823 20.4685 20.2914 20.4685 20.0986V20.0789C20.4685 19.6844 20.3117 19.3061 20.0328 19.0271C19.7538 18.7481 19.3754 18.5914 18.9809 18.5914H11.9499C11.3812 18.5914 10.8233 18.7473 10.337 19.0422L2.66406 23.6941L9.49839 28.9182H20.5729C21.7265 28.9188 22.8389 28.4898 23.6934 27.7149L30.8666 21.183C31.1806 20.9301 31.4249 20.6012 31.5765 20.2276C31.728 19.8539 31.7818 19.4478 31.7326 19.0475Z" fill="currentColor"/>
    </g>
    <defs>
        <clipPath id="clip0_94_476">
            <rect width="32" height="32" fill="white"/>
        </clipPath>
    </defs>
</svg>
